Coordinates
version=1
nRows=17
nColumns=24
inDegrees=yes

Units are S.I. units (second, meters, Newtons, ...)
Angles are in degrees.

endheader
time	pelvis_tilt	pelvis_list	pelvis_rotation	pelvis_tx	pelvis_ty	pelvis_tz	hip_flexion_r	hip_adduction_r	hip_rotation_r	knee_angle_r	ankle_angle_r	subtalar_angle_r	mtp_angle_r	hip_flexion_l	hip_adduction_l	hip_rotation_l	knee_angle_l	ankle_angle_l	subtalar_angle_l	mtp_angle_l	lumbar_extension	lumbar_bending	lumbar_rotation
      0.62000000	     -0.02933838	      9.82967753	      1.84126978	     -0.81313614	      0.96805445	      0.30311121	     28.39842068	    -12.26993589	     -0.42237309	     -0.99157852	      3.71779948	     -4.37627134	      0.77009754	    -22.57633174	     11.92440325	     14.28815843	      0.44475779	     10.63291145	    -14.15947816	      0.36534445	    -12.83760632	     -2.66540852	     -9.43577244
      0.62416667	     -0.12715889	      9.73111437	      1.92228889	     -0.80728604	      0.96732969	      0.30369669	     28.54302745	    -12.16430646	     -0.03499565	     -1.68888199	      3.49065706	     -4.88948765	      1.04811872	    -22.61716958	     11.78786435	     14.24381263	     -0.00654091	     10.75377129	    -14.05908318	      0.40463849	    -12.71478347	     -2.51121644	     -9.38499213
      0.62833333	     -0.12736059	      9.60677562	      1.97198313	     -0.80135803	      0.96674926	      0.30428186	     28.58581791	    -12.02750498	      0.24640659	     -2.40596425	      3.17623869	     -5.35634458	      5.45363898	    -22.74034685	     11.63143031	     14.04794214	     -0.49151964	     10.88668128	    -13.81212364	      1.15375521	    -12.66465598	     -2.27879818	     -9.38469765
      0.63250000	     -0.18221764	      9.50784817	      2.02782247	     -0.79541981	      0.96612622	      0.30489292	     28.69962399	    -11.90880182	      0.56610540	     -3.17097142	      2.91046271	     -5.79089695	      5.45224654	    -22.80507537	     11.50232847	     13.96970915	     -0.98222100	     10.94422227	    -13.72129331	      1.16332043	    -12.56951998	     -2.11501426	     -9.35443929
      0.63666667	     -0.23066644	      9.38597850	      2.07822654	     -0.78943178	      0.96554144	      0.30551070	     28.79646112	    -11.76318207	      0.85551333	     -3.93417925	      2.62960786	     -6.19880937	      5.45230588	    -22.85674653	     11.35436135	     13.84426688	     -1.51030253	     11.00150152	    -13.61843362	      1.18365649	    -12.48265913	     -1.89560026	     -9.34010725
      0.64083333	     -0.28819209	      9.26819555	      2.13635650	     -0.78340861	      0.96497947	      0.30613889	     28.89863312	    -11.62137723	      1.10690736	     -4.69602138	      2.21483841	     -6.65123823	      5.45376839	    -22.87895779	     11.20873237	     13.68297006	     -2.08276683	     11.06767803	    -13.42348187	      1.22449459	    -12.37199073	     -1.70140420	     -9.31907741
      0.64500000	     -0.33360498	      9.15425403	      2.19496570	     -0.77734925	      0.96446518	      0.30678028	     28.99001957	    -11.48251247	      1.30900939	     -5.46804786	      1.76039845	     -7.08979395	      5.46235974	    -22.89204028	     11.06587805	     13.50182565	     -2.69634963	     11.14463721	    -13.16294281	      1.29943980	    -12.26357264	     -1.51110296	     -9.29927078
      0.64916667	     -0.40409459	      9.02351801	      2.24884859	     -0.77124993	      0.96394181	      0.30742451	     29.11209832	    -11.32329300	      1.49123536	     -6.25559866	      1.31003394	     -7.45540945	      5.47010228	    -22.87063333	     10.91335347	     13.31993584	     -3.32167549	     11.16296537	    -13.01057745	      1.37529042	    -12.14545241	     -1.29147509	     -9.27496197
      0.65333333	     -0.44318070	      8.90104756	      2.30789918	     -0.76514475	      0.96348956	      0.30809541	     29.19629905	    -11.17316167	      1.63346402	     -7.03370890	      0.80047654	     -7.88189418	      5.49154451	    -22.84694347	     10.76300938	     13.08512721	     -4.02265146	     11.21004018	    -12.72701089	      1.53370261	    -12.05271544	     -1.08926737	     -9.25933194
      0.65750000	     -0.51083488	      8.76873469	      2.36103263	     -0.75899211	      0.96302141	      0.30876801	     29.32021417	    -11.01052479	      1.74680851	     -7.82972010	      0.26844200	     -8.23888191	      5.51960252	    -22.78747910	     10.61031861	     12.86176369	     -4.72607641	     11.19727232	    -12.53064245	      1.73377541	    -11.92392583	     -0.87184654	     -9.23883259
      0.66166667	     -0.59496406	      8.62438769	      2.40868488	     -0.75278232	      0.96256147	      0.30944259	     29.47004799	    -10.83700670	      1.79689422	     -8.64426165	     -0.27111775	     -8.47193234	      5.52601036	    -22.72249090	     10.44953374	     12.70535446	     -5.39868354	     11.06213911	    -12.49566703	      1.82283806	    -11.76186374	     -0.63375644	     -9.20004090
      0.66583333	     -0.68045643	      8.49024211	      2.46062767	     -0.74657122	      0.96211190	      0.31016498	     29.62976967	    -10.66782377	      1.85831485	     -9.47754076	     -0.83153321	     -8.86648856	      5.54352370	    -22.62219186	     10.29397477	     12.48278754	     -6.13827832	     11.00413496	    -12.28760199	      2.00045730	    -11.60394545	     -0.43368919	     -9.18657728
      0.67000000	     -0.76215470	      8.34062145	      2.50460102	     -0.74032681	      0.96169289	      0.31091105	     29.78514229	    -10.48115368	      1.88845016	    -10.31120117	     -1.38062583	     -9.19187751	      5.56917848	    -22.50606664	     10.12499237	     12.21621525	     -6.91379877	     10.91454081	    -12.06362677	      2.24661029	    -11.43914151	     -0.20051825	     -9.15875557
      0.67416667	     -0.81932347	      8.17884138	      2.54526984	     -0.73405968	      0.96135327	      0.31164022	     29.90786076	    -10.28941348	      1.85864995	    -11.13414236	     -1.88880770	     -9.34931483	      5.58098162	    -22.40200533	      9.94927209	     11.98239567	     -7.70622440	     10.66949175	    -12.03013269	      2.38992176	    -11.30817695	      0.06005731	     -9.12360057
      0.67833333	     -0.90234104	      8.02315203	      2.59433287	     -0.72781996	      0.96098368	      0.31246221	     30.07235586	    -10.09088508	      1.87088466	    -11.99262594	     -2.38033721	     -9.74269407	      5.63674507	    -22.21715811	      9.76722371	     11.63481293	     -8.60255930	     10.60973223	    -11.65964474	      2.93813610	    -11.16953941	      0.26914894	     -9.12007762
      0.68250000	     -0.95553562	      7.81828366	      2.61325299	     -0.72147335	      0.96068282	      0.31326177	     30.20656782	     -9.84683390	      1.78155759	    -12.86008319	     -2.84667827	     -9.86668192	      6.07416422	    -22.09378436	      9.54659984	     11.33509600	     -9.41518657	     10.27275454	    -11.60866723	      7.11915651	    -11.03948117	      0.56535391	     -9.01622667
      0.68666667	     -1.01723334	      7.64150738	      2.61559459	     -0.71512132	      0.96039800	      0.31412461	     30.36427078	     -9.61446533	      1.74514149	    -13.76038422	     -3.14520058	    -10.02387829	      6.07214709	    -21.96281431	      9.36318203	     11.10047950	    -10.21882776	      9.83759250	    -11.65061132	      7.14579484	    -10.89243503	      0.82489841	     -9.01497470
